2019-11-30 08:25:13.087
Emby Server version: 4.3.0.30

App: Emby Web 4.3.0.30
Chrome

http://0.0.0.0:8096/emby/videos/348/hls1/main/196.ts?DeviceId=TW96aWxsYS81LjAgKFgxMTsgTGludXggeDg2XzY0KSBBcHBsZVdlYktpdC81MzcuMzYgKEtIVE1MLCBsaWtlIEdlY2tvKSBDaHJvbWUvNzguMC4zOTA0LjEwOCBTYWZhcmkvNTM3LjM2fDE1NzQ3NDcwNjQzMzE1&MediaSourceId=1b271311909a0c95fbd2da2cc2c33093&PlaySessionId=33a124f41b1e4383bbde9e82d012a4ec&api_key=6bb02ad174344c63bc70e5a43d52ea13&VideoCodec=h264&AudioCodec=mp3,aac&VideoBitrate=139616000&AudioBitrate=384000&AudioStreamIndex=1&TranscodingMaxAudioChannels=2&SegmentContainer=ts&MinSegments=1&BreakOnNonKeyFrames=True&ManifestSubtitles=vtt&h264-profile=high,main,baseline,constrainedbaseline,high10&h264-level=51&TranscodeReasons=AudioCodecNotSupported

{"Protocol":"File","Id":"1b271311909a0c95fbd2da2cc2c33093","Path":"/mnt/share/vinny/files/tesers/12.Her贸is.2018.1080p.BluRay.6CH.x264.DUAL-WWW.BLUDV.COM.mkv","Type":"Default","Container":"mkv","Size":2612661834,"Name":"12.Her贸is.2018.1080p.BluRay.6CH.x264.DUAL-WWW.BLUDV.COM","IsRemote":false,"RunTimeTicks":77919990000,"SupportsTranscoding":true,"SupportsDirectStream":true,"SupportsDirectPlay":true,"IsInfiniteStream":false,"RequiresOpening":false,"RequiresClosing":false,"RequiresLooping":false,"SupportsProbing":false,"MediaStreams":[{"Codec":"h264","TimeBase":"1/1000","CodecTimeBase":"1001/48000","VideoRange":"SDR","DisplayTitle":"1080p H264","NalLengthSize":"4","IsInterlaced":false,"IsAVC":true,"BitRate":2682404,"BitDepth":8,"RefFrames":1,"IsDefault":true,"IsForced":false,"Height":800,"Width":1920,"AverageFrameRate":23.9760246,"RealFrameRate":23.9760246,"Profile":"High","Type":"Video","AspectRatio":"2.40:1","Index":0,"IsExternal":false,"IsTextSubtitleStream":false,"SupportsExternalStream":false,"Protocol":"File","PixelFormat":"yuv420p","Level":41,"IsAnamorphic":false},{"Codec":"ac3","Language":"por","TimeBase":"1/1000","CodecTimeBase":"1/48000","DisplayTitle":"Portuguese Dolby Digital 5.1 (Default)","DisplayLanguage":"Portuguese","IsInterlaced":false,"ChannelLayout":"5.1","BitRate":384000,"Channels":6,"SampleRate":48000,"IsDefault":true,"IsForced":true,"Type":"Audio","Index":1,"IsExternal":false,"IsTextSubtitleStream":false,"SupportsExternalStream":false,"Protocol":"File","Level":0},{"Codec":"aac","Language":"eng","TimeBase":"1/1000","CodecTimeBase":"1/48000","DisplayTitle":"English AAC stereo","DisplayLanguage":"English","IsInterlaced":false,"ChannelLayout":"stereo","BitRate":192000,"Channels":2,"SampleRate":48000,"IsDefault":false,"IsForced":false,"Profile":"LC","Type":"Audio","Index":2,"IsExternal":false,"IsTextSubtitleStream":false,"SupportsExternalStream":false,"Protocol":"File","Level":0},{"Codec":"mjpeg","ColorSpace":"bt470bg","TimeBase":"1/90000","CodecTimeBase":"0/1","IsInterlaced":false,"BitDepth":8,"RefFrames":1,"IsDefault":false,"IsForced":false,"Height":321,"Width":236,"RealFrameRate":90000,"Profile":"Baseline","Type":"EmbeddedImage","Index":3,"IsExternal":false,"IsTextSubtitleStream":false,"SupportsExternalStream":false,"Protocol":"File","PixelFormat":"yuvj420p","Level":-99,"IsAnamorphic":false}],"Formats":[],"Bitrate":2682404,"RequiredHttpHeaders":{},"ReadAtNativeFramerate":false}

User policy for vinny: EnablePlaybackRemuxing: True EnableVideoPlaybackTranscoding: True EnableAudioPlaybackTranscoding: True

/bin/ffmpeg -loglevel +timing -ss 00:19:36.000  -f matroska -noaccurate_seek -i file:"/mnt/share/vinny/files/tesers/12.Her贸is.2018.1080p.BluRay.6CH.x264.DUAL-WWW.BLUDV.COM.mkv" -threads 0 -map 0:0 -map 0:1 -sn -c:v:0 copy -bsf:v h264_mp4toannexb -copyts -vsync -1 -codec:a:0 libmp3lame -metadata:s:a:0 language=por -disposition:a:0 default -ac:a:0 2 -ab:a:0 192000 -af:a:0 "volume=2" -f segment -max_delay 5000000 -avoid_negative_ts disabled -map_metadata -1 -map_chapters -1 -start_at_zero -segment_time 6 -segment_time_delta -1176 -individual_header_trailer 0 -break_non_keyframes 1 -segment_format mpegts -segment_write_temp 1 -segment_list_type m3u8 -segment_start_number 196 -segment_list "/config/transcoding-temp/825ed952f16ba7f6e6c8239b8afdc327.m3u8" -y "/config/transcoding-temp/825ed952f16ba7f6e6c8239b8afdc327%d.ts"

08:25:13.135 ffmpeg version 4.3.0-emby_2019_11_09 Copyright (c) 2000-2019 the FFmpeg developers and softworkz for Emby LLC
08:25:13.135   built with gcc 8.3.0 (crosstool-NG 1.24.0)
08:25:13.135 Execution Date: 2019-11-30 08:25:13
08:25:13.155 Input #0, matroska,webm, from 'file:/mnt/share/vinny/files/tesers/12.Her贸is.2018.1080p.BluRay.6CH.x264.DUAL-WWW.BLUDV.COM.mkv':
08:25:13.155   Metadata:
08:25:13.155     title           : BAIXE | BLUDV.COM
08:25:13.155     encoder         : libebml v1.3.1 + libmatroska v1.4.2
08:25:13.155     creation_time   : 2018-06-13T15:37:10.000000Z
08:25:13.155   Duration: 02:09:52.00, start: 0.000000, bitrate: 2682 kb/s
08:25:13.155     Stream #0:0: Video: h264 (High), yuv420p(progressive), 1920x800 [SAR 1:1 DAR 12:5], Level 41, 23.98 fps, 23.98 tbr, 1k tbn, 47.95 tbc (default)
08:25:13.155     Metadata:
08:25:13.155       BPS             : 2149007
08:25:13.155       BPS-eng         : 2149007
08:25:13.155       DURATION        : 02:09:51.951000000
08:25:13.155       DURATION-eng    : 02:09:51.951000000
08:25:13.155       NUMBER_OF_FRAMES: 186820
08:25:13.155       NUMBER_OF_FRAMES-eng: 186820
08:25:13.155       NUMBER_OF_BYTES : 2093120373
08:25:13.155       NUMBER_OF_BYTES-eng: 2093120373
08:25:13.155     Stream #0:1(por): Audio: ac3, 48000 Hz, 5.1(side), fltp, 384 kb/s (default) (forced)
08:25:13.155     Metadata:
08:25:13.155       BPS             : 384000
08:25:13.155       BPS-eng         : 384000
08:25:13.155       DURATION        : 02:09:51.168000000
08:25:13.155       DURATION-eng    : 02:09:51.168000000
08:25:13.155       NUMBER_OF_FRAMES: 243474
08:25:13.155       NUMBER_OF_FRAMES-eng: 243474
08:25:13.155       NUMBER_OF_BYTES : 373976064
08:25:13.155       NUMBER_OF_BYTES-eng: 373976064
08:25:13.155     Stream #0:2(eng): Audio: aac (LC), 48000 Hz, stereo, fltp
08:25:13.155     Metadata:
08:25:13.155       BPS             : 146875
08:25:13.155       BPS-eng         : 146875
08:25:13.155       DURATION        : 02:09:51.999000000
08:25:13.155       DURATION-eng    : 02:09:51.999000000
08:25:13.155       NUMBER_OF_FRAMES: 365250
08:25:13.155       NUMBER_OF_FRAMES-eng: 365250
08:25:13.155       NUMBER_OF_BYTES : 143057157
08:25:13.155       NUMBER_OF_BYTES-eng: 143057157
08:25:13.155     Stream #0:3: Video: mjpeg (Baseline), yuvj420p(pc, bt470bg/unknown/unknown), 236x321, 90k tbr, 90k tbn, 90k tbc (attached pic)
08:25:13.155     Metadata:
08:25:13.156       filename        : cover.jpg
08:25:13.156       mimetype        : image/jpeg
08:25:13.156 Stream mapping:
08:25:13.156   Stream #0:0 -> #0:0 (copy)
08:25:13.156   Stream #0:1 -> #0:1 (ac3 (native) -> mp3 (libmp3lame))
08:25:13.156 Press [q] to stop, [?] for help
08:25:13.167 [segment @ 0x1c6e500] Opening '/config/transcoding-temp/825ed952f16ba7f6e6c8239b8afdc327196.ts.tmp' for writing
08:25:13.167 Output #0, segment, to '/config/transcoding-temp/825ed952f16ba7f6e6c8239b8afdc327%d.ts':
08:25:13.167   Metadata:
08:25:13.167     encoder         : Lavf58.31.104
08:25:13.167     Stream #0:0: Video: h264 (High), yuv420p(progressive), 1920x800 [SAR 1:1 DAR 12:5], q=2-31, Level 41, 23.98 fps, 23.98 tbr, 90k tbn, 23.98 tbc (default)
08:25:13.167     Stream #0:1(por): Audio: mp3 (libmp3lame), 48000 Hz, stereo, fltp, 192 kb/s (default)
08:25:13.167     Metadata:
08:25:13.167       encoder         : Lavc58.56.101 libmp3lame
08:25:13.658 frame=  253 fps=0.0 q=-1.0 size=    4087kB time=00:19:41.10 bitrate=  28.3kbits/s throttle=off speed=2.36e+03x    
08:25:13.722 [segment @ 0x1c6e500] Opening '/config/transcoding-temp/825ed952f16ba7f6e6c8239b8afdc327.m3u8.tmp' for writing
08:25:13.722 SegmentComplete=video:0 Index=196 Start=0.000000 End=1181.972000 Duration=1181.972000 offset_pts=0 start_pts=0 Frames=280 filename=825ed952f16ba7f6e6c8239b8afdc327196.ts
08:25:13.722 [segment @ 0x1c6e500] Opening '/config/transcoding-temp/825ed952f16ba7f6e6c8239b8afdc327197.ts.tmp' for writing
08:25:14.081 [segment @ 0x1c6e500] Opening '/config/transcoding-temp/825ed952f16ba7f6e6c8239b8afdc327.m3u8.tmp' for writing
08:25:14.082 SegmentComplete=video:0 Index=197 Start=1182.056000 End=1188.019000 Duration=5.963000 offset_pts=0 start_pts=1182056000 Frames=145 filename=825ed952f16ba7f6e6c8239b8afdc327197.ts
08:25:14.082 [segment @ 0x1c6e500] Opening '/config/transcoding-temp/825ed952f16ba7f6e6c8239b8afdc327198.ts.tmp' for writing
08:25:14.158 frame=  457 fps=457 q=-1.0 size=    7535kB time=00:19:49.48 bitrate=  51.9kbits/s throttle=off speed=1.19e+03x    
08:25:14.393 [segment @ 0x1c6e500] Opening '/config/transcoding-temp/825ed952f16ba7f6e6c8239b8afdc327.m3u8.tmp' for writing
08:25:14.394 SegmentComplete=video:0 Index=198 Start=1188.145000 End=1193.900000 Duration=5.755000 offset_pts=0 start_pts=1188145000 Frames=141 filename=825ed952f16ba7f6e6c8239b8afdc327198.ts
08:25:14.394 [segment @ 0x1c6e500] Opening '/config/transcoding-temp/825ed952f16ba7f6e6c8239b8afdc327199.ts.tmp' for writing
08:25:14.659 frame=  673 fps=448 q=-1.0 size=   10359kB time=00:19:58.31 bitrate=  70.8kbits/s throttle=off speed= 798x    
08:25:14.756 [segment @ 0x1c6e500] Opening '/config/transcoding-temp/825ed952f16ba7f6e6c8239b8afdc327.m3u8.tmp' for writing
08:25:14.758 SegmentComplete=video:0 Index=199 Start=1194.026000 End=1200.031000 Duration=6.005000 offset_pts=0 start_pts=1194026000 Frames=147 filename=825ed952f16ba7f6e6c8239b8afdc327199.ts
08:25:14.758 [segment @ 0x1c6e500] Opening '/config/transcoding-temp/825ed952f16ba7f6e6c8239b8afdc327200.ts.tmp' for writing
08:25:15.074 [segment @ 0x1c6e500] Opening '/config/transcoding-temp/825ed952f16ba7f6e6c8239b8afdc327.m3u8.tmp' for writing
08:25:15.075 SegmentComplete=video:0 Index=200 Start=1200.157000 End=1205.996000 Duration=5.839000 offset_pts=0 start_pts=1200157000 Frames=143 filename=825ed952f16ba7f6e6c8239b8afdc327200.ts
08:25:15.075 [segment @ 0x1c6e500] Opening '/config/transcoding-temp/825ed952f16ba7f6e6c8239b8afdc327201.ts.tmp' for writing
08:25:15.158 frame=  902 fps=451 q=-1.0 size=   13252kB time=00:20:08.00 bitrate=  89.9kbits/s throttle=off speed= 604x    
08:25:15.359 [segment @ 0x1c6e500] Opening '/config/transcoding-temp/825ed952f16ba7f6e6c8239b8afdc327.m3u8.tmp' for writing
08:25:15.359 SegmentComplete=video:0 Index=201 Start=1206.080000 End=1211.877000 Duration=5.797000 offset_pts=0 start_pts=1206080000 Frames=141 filename=825ed952f16ba7f6e6c8239b8afdc327201.ts
08:25:15.359 [segment @ 0x1c6e500] Opening '/config/transcoding-temp/825ed952f16ba7f6e6c8239b8afdc327202.ts.tmp' for writing
08:25:15.608 [segment @ 0x1c6e500] Opening '/config/transcoding-temp/825ed952f16ba7f6e6c8239b8afdc327.m3u8.tmp' for writing
08:25:15.609 SegmentComplete=video:0 Index=202 Start=1212.002000 End=1217.966000 Duration=5.964000 offset_pts=0 start_pts=1212002000 Frames=146 filename=825ed952f16ba7f6e6c8239b8afdc327202.ts
08:25:15.609 [segment @ 0x1c6e500] Opening '/config/transcoding-temp/825ed952f16ba7f6e6c8239b8afdc327203.ts.tmp' for writing
08:25:15.659 frame= 1171 fps=468 q=-1.0 size=   16926kB time=00:20:19.19 bitrate= 113.7kbits/s throttle=off speed= 487x    
08:25:15.876 [segment @ 0x1c6e500] Opening '/config/transcoding-temp/825ed952f16ba7f6e6c8239b8afdc327.m3u8.tmp' for writing
08:25:15.877 SegmentComplete=video:0 Index=203 Start=1218.092000 End=1223.889000 Duration=5.797000 offset_pts=0 start_pts=1218092000 Frames=142 filename=825ed952f16ba7f6e6c8239b8afdc327203.ts
08:25:15.877 [segment @ 0x1c6e500] Opening '/config/transcoding-temp/825ed952f16ba7f6e6c8239b8afdc327204.ts.tmp' for writing
08:25:16.155 [segment @ 0x1c6e500] Opening '/config/transcoding-temp/825ed952f16ba7f6e6c8239b8afdc327.m3u8.tmp' for writing
08:25:16.155 SegmentComplete=video:0 Index=204 Start=1224.014000 End=1230.020000 Duration=6.006000 offset_pts=0 start_pts=1224014000 Frames=147 filename=825ed952f16ba7f6e6c8239b8afdc327204.ts
08:25:16.155 [segment @ 0x1c6e500] Opening '/config/transcoding-temp/825ed952f16ba7f6e6c8239b8afdc327205.ts.tmp' for writing
08:25:16.161 frame= 1436 fps=478 q=-1.0 size=   20364kB time=00:20:30.25 bitrate= 135.6kbits/s throttle=off speed= 410x    
08:25:16.418 [segment @ 0x1c6e500] Opening '/config/transcoding-temp/825ed952f16ba7f6e6c8239b8afdc327.m3u8.tmp' for writing
08:25:16.419 SegmentComplete=video:0 Index=205 Start=1230.146000 End=1236.026000 Duration=5.880000 offset_pts=0 start_pts=1230146000 Frames=144 filename=825ed952f16ba7f6e6c8239b8afdc327205.ts
08:25:16.419 [segment @ 0x1c6e500] Opening '/config/transcoding-temp/825ed952f16ba7f6e6c8239b8afdc327206.ts.tmp' for writing
08:25:16.624 [segment @ 0x1c6e500] Opening '/config/transcoding-temp/825ed952f16ba7f6e6c8239b8afdc327.m3u8.tmp' for writing
08:25:16.625 SegmentComplete=video:0 Index=206 Start=1236.026000 End=1241.948000 Duration=5.922000 offset_pts=0 start_pts=1236026000 Frames=142 filename=825ed952f16ba7f6e6c8239b8afdc327206.ts
08:25:16.625 [segment @ 0x1c6e500] Opening '/config/transcoding-temp/825ed952f16ba7f6e6c8239b8afdc327207.ts.tmp' for writing
08:25:16.662 frame= 1738 fps=496 q=-1.0 size=   23428kB time=00:20:42.92 bitrate= 154.4kbits/s throttle=off speed= 355x    
08:25:16.906 [segment @ 0x1c6e500] Opening '/config/transcoding-temp/825ed952f16ba7f6e6c8239b8afdc327.m3u8.tmp' for writing
08:25:16.907 SegmentComplete=video:0 Index=207 Start=1242.074000 End=1247.913000 Duration=5.839000 offset_pts=0 start_pts=1242074000 Frames=143 filename=825ed952f16ba7f6e6c8239b8afdc327207.ts
08:25:16.907 [segment @ 0x1c6e500] Opening '/config/transcoding-temp/825ed952f16ba7f6e6c8239b8afdc327208.ts.tmp' for writing
08:25:17.109 [segment @ 0x1c6e500] Opening '/config/transcoding-temp/825ed952f16ba7f6e6c8239b8afdc327.m3u8.tmp' for writing
08:25:17.109 SegmentComplete=video:0 Index=208 Start=1248.038000 End=1254.002000 Duration=5.964000 offset_pts=0 start_pts=1248038000 Frames=146 filename=825ed952f16ba7f6e6c8239b8afdc327208.ts
08:25:17.109 [segment @ 0x1c6e500] Opening '/config/transcoding-temp/825ed952f16ba7f6e6c8239b8afdc327209.ts.tmp' for writing
08:25:17.162 frame= 2051 fps=512 q=-1.0 size=   26554kB time=00:20:55.91 bitrate= 173.2kbits/s throttle=off speed= 314x    
08:25:17.442 [segment @ 0x1c6e500] Opening '/config/transcoding-temp/825ed952f16ba7f6e6c8239b8afdc327.m3u8.tmp' for writing
08:25:17.443 SegmentComplete=video:0 Index=209 Start=1254.086000 End=1260.008000 Duration=5.922000 offset_pts=0 start_pts=1254086000 Frames=144 filename=825ed952f16ba7f6e6c8239b8afdc327209.ts
08:25:17.443 [segment @ 0x1c6e500] Opening '/config/transcoding-temp/825ed952f16ba7f6e6c8239b8afdc327210.ts.tmp' for writing
08:25:17.667 frame= 2245 fps=498 q=-1.0 size=   28939kB time=00:21:03.83 bitrate= 187.6kbits/s throttle=off speed= 281x    
08:25:17.832 [segment @ 0x1c6e500] Opening '/config/transcoding-temp/825ed952f16ba7f6e6c8239b8afdc327.m3u8.tmp' for writing
08:25:17.832 SegmentComplete=video:0 Index=210 Start=1260.134000 End=1265.931000 Duration=5.797000 offset_pts=0 start_pts=1260134000 Frames=142 filename=825ed952f16ba7f6e6c8239b8afdc327210.ts
08:25:17.832 [segment @ 0x1c6e500] Opening '/config/transcoding-temp/825ed952f16ba7f6e6c8239b8afdc327211.ts.tmp' for writing
08:25:18.077 [segment @ 0x1c6e500] Opening '/config/transcoding-temp/825ed952f16ba7f6e6c8239b8afdc327.m3u8.tmp' for writing
08:25:18.078 SegmentComplete=video:0 Index=211 Start=1266.056000 End=1271.895000 Duration=5.839000 offset_pts=0 start_pts=1266056000 Frames=143 filename=825ed952f16ba7f6e6c8239b8afdc327211.ts
08:25:18.078 [segment @ 0x1c6e500] Opening '/config/transcoding-temp/825ed952f16ba7f6e6c8239b8afdc327212.ts.tmp' for writing
08:25:18.163 frame= 2476 fps=495 q=-1.0 size=   31529kB time=00:21:13.64 bitrate= 202.8kbits/s throttle=off speed= 254x    
08:25:18.300 

[q] command received. Exiting.

08:25:18.303 08:25:18.304 [segment @ 0x1c6e500] Opening '/config/transcoding-temp/825ed952f16ba7f6e6c8239b8afdc327.m3u8.tmp' for writing
08:25:18.304 SegmentComplete=video:0 Index=212 Start=1272.021000 End=1275.982000 Duration=3.961000 offset_pts=0 start_pts=1272021000 Frames=98 filename=825ed952f16ba7f6e6c8239b8afdc327212.ts
08:25:18.305 frame= 2534 fps=492 q=-1.0 Lsize=   32117kB time=00:21:16.19 bitrate= 206.2kbits/s throttle=off speed= 248x    
08:25:18.305 video:29634kB audio:2482kB subtitle:0kB other streams:0kB global headers:0kB muxing overhead: 0.000000%
    Last message repeated 1 times
08:25:18.305 EXIT
08:25:18.306 
